<?xml version="1.0" encoding="utf-8"?>
<!-- Generator: Adobe Illustrator 23.1.1, SVG Export Plug-In . SVG Version: 6.00 Build 0)  -->
<svg version="1.1" id="layer" xmlns="http://www.w3.org/2000/svg" xmlns:xlink="http://www.w3.org/1999/xlink" x="0px" y="0px"
	 viewBox="0 0 652 182.4" style="enable-background:new 0 0 652 182.4;" xml:space="preserve">
<style type="text/css">
	.st0{fill:#FF3354;}
	.st1{fill:#00587F;}
</style>
<g id="Footerpages_1_">
	<g id="kitt_services_desktop_190118_1_" transform="translate(-822 -2227)">
		<g id="Kapten_Logotype_BluePassenger_RGB" transform="translate(822 2227)">
			<path id="Kapten_Logotype_Passenger_Underscore" class="st0" d="M550.3,133.1h70.3c0.5,0,1.4,0.5,1.4,1.4v15.8
				c0,0.5-0.5,1.4-1.4,1.4h-70.3c-0.5,0-1.4-0.5-1.4-1.4v-15.8C549.4,134,549.8,133.1,550.3,133.1z"/>
			<path id="Kapten_Logotype_Blue" class="st1" d="M92.2,131.3c0.5,0.5,0.5,1.4,0,1.8c-0.5,0-0.5,0.5-0.9,0.5H73.7
				c-0.5,0-0.5,0-0.9-0.5L39.9,96.2v36c0,0.5-0.5,1.4-1.4,1.4H23.3c-0.5,0-1.4-0.5-1.4-1.4V36.3c0-0.5,0.5-0.9,0.9-0.9l14.9-4.5
				c0.5,0,1.4,0,1.4,0.9v56.8l31.1-35.1c0-0.5,0.5-0.5,0.9-0.5h18c0.5,0,1.4,0.5,1.4,1.4c0,0.5,0,0.5-0.5,0.9L56.2,92.7L92.2,131.3z
				 M348,53h-18.9V32.3c0-0.5-0.5-1.4-1.4-1.4h-0.5l-15.3,4.5c-0.5,0-0.9,0.5-0.9,0.9v16.2h-13.5c-0.5,0-1.4,0.5-1.4,1.4v14.4
				c0,0.5,0.5,1.4,1.4,1.4H311v38.7c0,20.7,10.4,27.9,36.5,25.2c0.5,0,0.9-0.5,0.9-1.4v-13.5c0-0.5-0.5-1.4-1.4-1.4
				c-12.2,0.5-18.9,0.5-18.9-9.5V69.5H347c0.5,0,1.4-0.5,1.4-1.4V53.7C349.4,53.4,348.9,53,348,53z M442.2,93.5c0,1.8,0,4.1-0.5,5.9
				c0,0.9-0.9,1.4-1.4,1.4h-62.6c2.7,12.2,13.1,18.9,25.7,18.9c7.7,0.5,14.9-3.2,19.8-9c0.5-0.5,1.4-0.9,2.3-0.5l11.7,6.8
				c0.9,0.5,0.9,1.4,0.5,2.3c-7.7,9.9-19.4,16.2-34.2,16.2c-26.6,0-43.7-18-43.7-42.3c0-23.9,17.1-42.3,42.3-42.3
				C426,50.7,442.2,70.1,442.2,93.5L442.2,93.5z M424.6,86.3c-2.3-13.5-12.6-19.4-23-19.4c-13.1,0-21.6,7.7-24.3,19.4H424.6z
				 M500.7,50.7c-10.8,0-19.8,4.1-25.2,12.2v-9c0-0.5-0.5-1.4-1.4-1.4h-14.9c-0.5,0-1.4,0.5-1.4,1.4v77.9c0,0.5,0.5,1.4,1.4,1.4
				h14.9c0.5,0,1.4-0.5,1.4-1.4V89.9c0-16.2,9-23,20.3-23c10.8,0,18,6.3,18,18.5v46.4c0,0.5,0.5,1.4,1.4,1.4h15.3
				c0.5,0,1.4-0.5,1.4-1.4V84.1C531.8,62.9,519.2,50.7,500.7,50.7z M181.4,54.3v77.9c0,0.5-0.5,1.4-1.4,1.4h-15.3
				c-0.5,0-1.4-0.5-1.4-1.4v-10.4c-6.8,9-15.8,13.5-28.4,13.5c-10.8,0-21.2-4.5-28.4-12.2c-7.7-8.1-12.2-18.9-11.7-30.2
				c-0.5-11.3,4.1-22.1,11.7-30.2c7.2-8.1,17.6-12.6,28.4-12.2c12.2,0,21.6,4.5,28.4,13.5V53.6c0-0.5,0.5-1.4,1.4-1.4H180
				C180.9,52.5,181.4,53.4,181.4,54.3C181.4,53.9,181.4,53.9,181.4,54.3L181.4,54.3z M163.8,93c0.5-6.8-2.3-13.5-7.2-18.5
				c-9.9-9.9-26.1-9.9-36.5,0c-5,5-7.7,11.3-7.2,18.5c0,6.8,2.3,13.5,7.2,18.5c10.4,9.5,26.1,9.5,36.5,0
				C161.5,106.6,164.2,99.8,163.8,93z M278.2,63.3c7.7,8.1,12.2,18.9,11.7,29.7c0.5,11.3-4.1,22.1-11.7,30.2
				c-7.2,8.1-17.6,12.6-28.4,12.2c-12.2,0-21.6-4.5-28.4-13.5v36.5c0,0.5-0.5,1.4-1.4,1.4h-15.3c-0.5,0-1.4-0.5-1.4-1.4V54.3
				c0-0.5,0.5-1.4,1.4-1.4H220c0.5,0,1.4,0.5,1.4,1.4v10.4c6.8-9,15.8-13.5,28.4-13.5C260.6,50.7,271,55.2,278.2,63.3z M272.8,93
				c0.5-6.8-2.3-13.5-7.2-18.5c-9.9-9.9-26.1-9.9-36.5,0c-5,5-7.2,11.7-7.2,18.5s2.3,13.5,7.2,18.5c10.4,9.5,26.1,9.5,36.5,0
				C270.5,106.6,272.8,99.8,272.8,93z"/>
		</g>
	</g>
</g>
</svg>
